<svg xmlns="http://www.w3.org/2000/svg" width="53.004" height="52.996" viewBox="0 0 53.004 52.996">
  <g id="icons8-google" transform="translate(-5.996 -5)">
    <path id="Caminho_2" data-name="Caminho 2" d="M47.46,15.5l-1.37,1.48a4.017,4.017,0,0,1-5.15.6,15.264,15.264,0,0,0-11-2.37A16.909,16.909,0,0,0,18.3,23.18L10.27,17.1A26.48,26.48,0,0,1,32.5,5,25.659,25.659,0,0,1,46.77,9.46,4,4,0,0,1,47.46,15.5Z" fill="#141419"/>
    <path id="Caminho_3" data-name="Caminho 3" d="M16.01,30.91a16.311,16.311,0,0,0,1.27,6.96L9.07,43.92A25.481,25.481,0,0,1,6.32,35.7a26.415,26.415,0,0,1,3.95-18.6l8.03,6.08A16.045,16.045,0,0,0,16.01,30.91Z" fill="#7159c1"/>
    <path id="Caminho_4" data-name="Caminho 4" d="M50.45,51.28A26.855,26.855,0,0,1,9.07,43.92l8.21-6.05A16.547,16.547,0,0,0,32.5,48a16.861,16.861,0,0,0,10.33-3.44Z" fill="#40326b"/>
    <path id="Caminho_5" data-name="Caminho 5" d="M59,31.97a25.654,25.654,0,0,1-8.55,19.31l-7.62-6.72a15.683,15.683,0,0,0,4.84-6.15A1.009,1.009,0,0,0,46.75,37H37a4,4,0,0,1-4-4V31a4,4,0,0,1,4-4H54A4.989,4.989,0,0,1,59,31.97Z" fill="#e65100"/>
  </g>
</svg>
